{"title":"18+ Atomic Blonde 2017 UNCENSORED Movies HD TS XviD Clean Audio ","magnet":"magnet:?xt=urn:btih:ea7b2871bf5690b6b7c9c13466989bc63b9d14b4&dn=18%2B+Atomic+Blonde+2017+UNCENSORED+Movies+HD+TS+XviD+Clean+Audio+&tr=udp%3A%2F%2Ftracker.leechers-paradise.org%3A6969&tr=udp%3A%2F%2Fzer0day.ch%3A1337&tr=udp%3A%2F%2Fopen.demonii.com%3A1337&tr=udp%3A%2F%2Ftracker.coppersurfer.tk%3A6969&tr=udp%3A%2F%2Fexodus.desync.com%3A6969","uploader":"basicssom","categoryP":"video","categoryS":"movies","size":"738475186","seeders":"1","leechers":"259","description":"----------------------------------------------------------------\r\n18+ Atomic Blonde 2017 UNCENSORED Movies HD TS XviD Clean Audio AAC New Source with Sample &#x263B;rDX&#x263B;\r\n\r\nSCREEN SHOTS &amp; POSTER:\r\n   <a href=\"\nhttp://postimage.co.nr/2017/7/1/hardware/index.html\" rel=\"nofollow\" target=\"_NEW\">\nhttp://postimage.co.nr/2017/7/1/hardware/index.html</a>  <a href=\"\nhttp://postimage.co.nr/2017/7/1/hardware/1.html\" rel=\"nofollow\" target=\"_NEW\">\nhttp://postimage.co.nr/2017/7/1/hardware/1.html</a>   <a href=\"\nhttp://postimage.co.nr/2017/7/1/hardware/2.html\" rel=\"nofollow\" target=\"_NEW\">\nhttp://postimage.co.nr/2017/7/1/hardware/2.html</a>   <a href=\"\nhttp://postimage.co.nr/2017/7/1/hardware/3.html\" rel=\"nofollow\" target=\"_NEW\">\nhttp://postimage.co.nr/2017/7/1/hardware/3.html</a>   <a href=\"\nhttp://postimage.co.nr/2017/7/1/hardware/4.html\" rel=\"nofollow\" target=\"_NEW\">\nhttp://postimage.co.nr/2017/7/1/hardware/4.html</a>   <a href=\"\nhttp://postimage.co.nr/2017/7/1/hardware/5.html\" rel=\"nofollow\" target=\"_NEW\">\nhttp://postimage.co.nr/2017/7/1/hardware/5.html</a>   <a href=\"\nhttp://postimage.co.nr/2017/7/1/hardware/6.html\" rel=\"nofollow\" target=\"_NEW\">\nhttp://postimage.co.nr/2017/7/1/hardware/6.html</a>   <a href=\"\nhttp://postimage.co.nr/2017/7/1/hardware/7.html\" rel=\"nofollow\" target=\"_NEW\">\nhttp://postimage.co.nr/2017/7/1/hardware/7.html</a>   <a href=\"\nhttp://postimage.co.nr/2017/7/1/hardware/8.html\" rel=\"nofollow\" target=\"_NEW\">\nhttp://postimage.co.nr/2017/7/1/hardware/8.html</a>   <a href=\"\nhttp://postimage.co.nr/2017/7/1/hardware/9.html\" rel=\"nofollow\" target=\"_NEW\">\nhttp://postimage.co.nr/2017/7/1/hardware/9.html</a>   <a href=\"\nhttp://postimage.co.nr/2017/7/1/hardware/10.html\" rel=\"nofollow\" target=\"_NEW\">\nhttp://postimage.co.nr/2017/7/1/hardware/10.html</a>\r\n\r\nFile size                                : 696 MiB\r\nDuration                                 : 1 h 48 min\r\nOverall bit rate mode                    : Constant\r\nOverall bit rate                         : 899 kb/s\r\nMovie name                               : 18+ Atomic Blonde 2017 UNCENSORED Movies HD TS XviD Clean Audio AAC New Source &#x263B;rDX&#x263B;\r\n\r\nVideo\r\nID                                       : 2\r\nFormat                                   : AVC\r\nFormat/Info                              : Advanced Video Codec\r\nFormat profile                           : <a class=\"__cf_email__\" href=\"/cdn-cgi/l/email-protection\" data-cfemail=\"226f434b4c626e110c13\">[email&#xA0;protected]</a><script data-cfhash=\"f9e31\" type=\"text/javascript\">/* <![CDATA[ */!function(t,e,r,n,c,a,p){try{t=document.currentScript||function(){for(t=document.getElementsByTagName('script'),e=t.length;e--;)if(t[e].getAttribute('data-cfhash'))return t[e]}();if(t&&(c=t.previousSibling)){p=t.parentNode;if(a=c.getAttribute('data-cfemail')){for(e='',r='0x'+a.substr(0,2)|0,n=2;a.length-n;n+=2)e+='%'+('0'+('0x'+a.substr(n,2)^r).toString(16)).slice(-2);p.replaceChild(document.createTextNode(decodeURIComponent(e)),c)}p.removeChild(t)}}catch(u){}}()/* ]]> */</script>\r\nFormat settings, CABAC                   : Yes\r\nFormat settings, ReFrames                : 2 frames\r\nFormat settings, GOP                     : M=1, N=12\r\nCodec ID                                 : V_MPEG4/ISO/AVC\r\nDuration                                 : 1 h 48 min\r\nBit rate mode                            : Constant\r\nBit rate                                 : 774 kb/s\r\nWidth                                    : 710 pixels\r\nHeight                                   : 304 pixels\r\nDisplay aspect ratio                     : 2.35:1\r\nFrame rate mode                          : Constant\r\nFrame rate                               : 60.000 FPS\r\nColor space                              : YUV\r\nChroma subsampling                       : 4:2:0\r\nBit depth                                : 8 bits\r\nScan type                                : Progressive\r\nBits/(Pixel*Frame)                       : 0.060\r\nStream size                              : 583 MiB (84%)\r\nTitle                                    : &#x263B;rDX&#x263B;\r\nDefault                                  : Yes\r\nForced                                   : No\r\n\r\nAudio\r\nID                                       : 1\r\nFormat                                   : MPEG Audio\r\nFormat version                           : Version 1\r\nFormat profile                           : Layer 3\r\nCodec ID                                 : A_MPEG/L3\r\nCodec ID/Hint                            : MP3\r\nDuration                                 : 1 h 48 min\r\nBit rate mode                            : Constant\r\nBit rate                                 : 128 kb/s\r\nChannel(s)                               : 2 channels\r\nSampling rate                            : 44.1 kHz\r\nCompression mode                         : Lossy\r\nDelay relative to video                  : 18 ms\r\nStream size                              : 99.1 MiB (14%)\r\nTitle                                    : &#x263B;rDX&#x263B;\r\nDefault                                  : Yes\r\nForced                                   : No","last_updated":"2017-08-03T12:03:00.351Z","parsed":{"xt":"urn:btih:ea7b2871bf5690b6b7c9c13466989bc63b9d14b4","dn":"18  Atomic Blonde 2017 UNCENSORED Movies HD TS XviD Clean Audio ","tr":["udp://exodus.desync.com:6969","udp://open.demonii.com:1337","udp://tracker.coppersurfer.tk:6969","udp://tracker.leechers-paradise.org:6969","udp://zer0day.ch:1337"],"infoHash":"ea7b2871bf5690b6b7c9c13466989bc63b9d14b4","infoHashBuffer":{"type":"Buffer","data":[234,123,40,113,191,86,144,182,183,201,193,52,102,152,155,198,59,157,20,180]},"name":"18  Atomic Blonde 2017 UNCENSORED Movies HD TS XviD Clean Audio ","announce":["udp://exodus.desync.com:6969","udp://open.demonii.com:1337","udp://tracker.coppersurfer.tk:6969","udp://tracker.leechers-paradise.org:6969","udp://zer0day.ch:1337"],"urlList":[]}}